<?xml version="1.0" encoding="utf-8"?>
<!-- Generator: Adobe Illustrator 25.0.1, SVG Export Plug-In . SVG Version: 6.00 Build 0)  -->
<svg version="1.1" id="Слой_1" xmlns="http://www.w3.org/2000/svg" xmlns:xlink="http://www.w3.org/1999/xlink" x="0px" y="0px"
	 viewBox="0 0 397 617" style="enable-background:new 0 0 397 617;" xml:space="preserve">
<style type="text/css">
	.st0{fill:#FFE4E4;}
</style>
<g>
	<path class="st0" d="M395,338.9c-0.5-12.5-1.1-25.4-1.3-37.9c-0.3-12.6-0.2-25.8-0.2-38.5c0.2-72.5,0.4-147.4-48.8-196.6
		c-40.1-40.2-99.8-41.2-157.5-42.2c-24.9-0.4-50.6-0.9-74.6-4.4c-13.9-2-27.8-4.5-41.3-6.8C47.1,8.2,23.5,4.1,0,2v1
		c23.5,2.1,47,6.2,71.2,10.4c13.5,2.3,27.4,4.8,41.3,6.8c24,3.5,49.8,4,74.7,4.4c57.5,1,117,2.1,156.8,41.9
		c48.8,49,48.6,123.7,48.5,195.9c0,12.8-0.1,25.9,0.2,38.5c0.3,12.4,0.8,25.4,1.3,37.9c3.1,73.6,6.2,149.8-40.1,203.8
		c-54,63-147.8,68-230.5,72.5C80,617.6,40.7,604.4,0,588.9v1.1c37.5,14.2,73.8,26.5,113.3,26.5c3.4,0,6.8-0.1,10.2-0.3
		c39.9-2.2,85.2-4.6,126.3-14.5c46.5-11.2,80.8-30.3,104.9-58.4C401.2,489,398,412.7,395,338.9z"/>
</g>
</svg>
