<svg width="1493" height="1560" viewBox="0 0 1493 1560" fill="none" xmlns="http://www.w3.org/2000/svg">
<path fill-rule="evenodd" clip-rule="evenodd" d="M1269.15 877.016C1270.89 960.754 1284.79 1055.44 1230.29 1119.04C1176.46 1181.83 1082 1187.27 999.41 1191.73C932.941 1195.32 874.543 1161.96 811.138 1141.69C747.326 1121.29 667.371 1126.74 627.553 1072.87C587.7 1018.95 620.004 943.913 615.515 877.016C610.563 803.21 560.73 723.831 599.923 661.093C639.104 598.375 727.847 592.727 800.778 580.461C864.257 569.785 924.861 586.358 988.546 595.733C1068.47 607.496 1163.29 585.032 1220.34 642.22C1278.22 700.235 1267.44 795.09 1269.15 877.016Z" stroke="#FFE4E4"/>
<g filter="url(#filter0_f)">
<path fill-rule="evenodd" clip-rule="evenodd" d="M899.168 1197.7C812.204 1230.78 712.405 1249.04 627.208 1211.54C543.415 1174.65 507.822 1080.47 458.09 1003.54C408.465 926.773 332.614 855.632 338.157 764.389C343.69 673.318 429.903 614.079 486.112 542.283C543.488 468.997 583.017 375.009 669.62 341.012C760.261 305.429 873.205 304.234 954.084 358.573C1031.66 410.694 1027.48 523.093 1066.86 607.902C1098.77 676.631 1158.05 732.255 1162.7 807.886C1167.66 888.709 1138.37 967.287 1093.04 1034.33C1044.51 1106.12 980.121 1166.9 899.168 1197.7Z" fill="#DDDFDB" fill-opacity="0.4"/>
<path fill-rule="evenodd" clip-rule="evenodd" d="M899.168 1197.7C812.204 1230.78 712.405 1249.04 627.208 1211.54C543.415 1174.65 507.822 1080.47 458.09 1003.54C408.465 926.773 332.614 855.632 338.157 764.389C343.69 673.318 429.903 614.079 486.112 542.283C543.488 468.997 583.017 375.009 669.62 341.012C760.261 305.429 873.205 304.234 954.084 358.573C1031.66 410.694 1027.48 523.093 1066.86 607.902C1098.77 676.631 1158.05 732.255 1162.7 807.886C1167.66 888.709 1138.37 967.287 1093.04 1034.33C1044.51 1106.12 980.121 1166.9 899.168 1197.7Z" stroke="#BDBDBD"/>
</g>
<defs>
<filter id="filter0_f" x="0.387695" y="0.387695" width="1491.65" height="1559.49" filterUnits="userSpaceOnUse" color-interpolation-filters="sRGB">
<feFlood flood-opacity="0" result="BackgroundImageFix"/>
<feBlend mode="normal" in="SourceGraphic" in2="BackgroundImageFix" result="shape"/>
<feGaussianBlur stdDeviation="122.5" result="effect1_foregroundBlur"/>
</filter>
</defs>
</svg>
