<?xml version="1.0" encoding="utf-8"?>
<!-- Generator: Adobe Illustrator 25.0.1, SVG Export Plug-In . SVG Version: 6.00 Build 0)  -->
<svg version="1.1" id="Слой_1" xmlns="http://www.w3.org/2000/svg" xmlns:xlink="http://www.w3.org/1999/xlink" x="0px" y="0px"
	 viewBox="0 0 353 606" style="enable-background:new 0 0 353 606;" xml:space="preserve">
<style type="text/css">
	.st0{fill:#FFE4E4;}
</style>
<g>
	<path class="st0" d="M17.9,250.8c3.1-21.1,3.5-43.7,3.9-65.5c0.9-50.5,1.8-102.7,36.8-137.6C98.9,7.5,159.2,5.2,218.8,5.2
		c3.9,0,7.8,0,11.6,0c11.2,0,22.8,0,33.8-0.2c10.9-0.2,22.3-0.7,33.2-1.2C316,3.1,334.7,2.3,353,2.5v-1c-18.3-0.2-37,0.5-55.5,1.3
		c-11,0.5-22.3,0.9-33.2,1.2c-11.1,0.2-22.6,0.2-33.8,0.2C166.9,4,101.1,3.8,57.9,47c-35.2,35.2-36.2,87.6-37.1,138.2
		c-0.4,21.8-0.8,44.4-3.9,65.4c-1.8,12.2-3.9,24.4-6,36.2c-7.6,43.8-14.8,85.1-7.4,128.7c1.3,7.8,2.5,15.7,3.8,24.1
		c8.8,57.3,18.7,122.2,67.2,152.5c15.5,9.7,31.9,13.2,49.2,13.2c23.4,0,48.3-6.6,73.9-13.5c22-5.9,44.8-11.9,66.7-13.4
		c19.9-1.3,40.9,1.1,61.2,3.4c9.3,1.1,18.5,2.1,27.5,2.8v-1c-9-0.7-18.1-1.8-27.4-2.8c-20.3-2.3-41.4-4.8-61.4-3.4
		c-22,1.5-44.8,7.6-66.9,13.4c-44.3,11.8-86.1,22.9-122.3,0.3c-48.1-30-58-94.8-66.7-151.8c-1.3-8.3-2.5-16.2-3.8-24.1
		C-2.8,371.9,4.4,330.7,12,287C14,275.2,16.1,263,17.9,250.8z"/>
</g>
</svg>
