<?xml version="1.0" encoding="utf-8"?>
<!-- Generator: Adobe Illustrator 25.0.1, SVG Export Plug-In . SVG Version: 6.00 Build 0)  -->
<svg version="1.1" id="Слой_1" xmlns="http://www.w3.org/2000/svg" xmlns:xlink="http://www.w3.org/1999/xlink" x="0px" y="0px"
	 viewBox="0 0 137 509" style="enable-background:new 0 0 137 509;" xml:space="preserve">
<style type="text/css">
	.st0{fill:#FFE4E4;}
</style>
<g>
	<path class="st0" d="M113.2,176.4c17.5-42.3,34-82.3,12.2-118.7C101,17.2,50.5,7.8,0,4v1c50.2,3.8,100.4,13.1,124.6,53.3
		c21.6,35.9,5.1,75.7-12.3,117.8c-10.8,26.1-21.9,53-23.7,79.5c-1.7,24.5,4.5,49.7,10.4,74.1c9.1,37.4,17.7,72.7-0.2,104.6
		C78.7,470,42.1,491,0,505.3v1.1c42.5-14.4,79.4-35.4,99.7-71.6c18.1-32.2,9.4-67.7,0.3-105.3c-5.9-24.3-12-49.4-10.4-73.8
		C91.4,229.3,102.5,202.4,113.2,176.4z"/>
</g>
</svg>
