<?xml version="1.0" encoding="utf-8"?>
<!-- Generator: Adobe Illustrator 25.0.1, SVG Export Plug-In . SVG Version: 6.00 Build 0)  -->
<svg version="1.1" id="Слой_1" xmlns="http://www.w3.org/2000/svg" xmlns:xlink="http://www.w3.org/1999/xlink" x="0px" y="0px"
	 viewBox="0 0 121 441" style="enable-background:new 0 0 121 441;" xml:space="preserve">
<style type="text/css">
	.st0{fill:#FFE4E4;}
</style>
<g>
	<path class="st0" d="M65.3,34.9c16.5-13.7,35.4-20.2,55.7-22.7v-1c-20.5,2.5-39.6,9.1-56.3,22.9C38.3,56,19.7,87.6,9.4,128
		c-8.6,33.8-11,73.1-7,113.6c3.2,32.8,14.6,65.8,33.7,98c16.6,27.9,39,55.4,66.8,81.7c5.8,5.5,11.8,10.5,18.2,15.1v-1.2
		c-6.1-4.5-11.9-9.3-17.5-14.6C44,364.2,9.4,302.3,3.4,241.6C-0.9,198.4-3.4,91.8,65.3,34.9z"/>
</g>
</svg>
