<?xml version="1.0" encoding="utf-8"?>
<!-- Generator: Adobe Illustrator 25.0.1, SVG Export Plug-In . SVG Version: 6.00 Build 0)  -->
<svg version="1.1" id="Слой_1" xmlns="http://www.w3.org/2000/svg" xmlns:xlink="http://www.w3.org/1999/xlink" x="0px" y="0px"
	 viewBox="0 0 1440 1136" style="enable-background:new 0 0 1440 1136;" xml:space="preserve">
<style type="text/css">
	.st0{fill-rule:evenodd;clip-rule:evenodd;fill:#F0EFEF;fill-opacity:0.8;}
</style>
<g>
	<path class="st0" d="M1440,768v259.3l-60-14c-60-15-180-43-300-43s-240,28-360,72.1c-21.5,7.7-43.1,15.9-64.6,24.1
		c-98.5,37.4-196.9,74.8-295.4,69c-120-7-240-79.1-300-115.1l-60-36L0,768V368V108.7l60,14c60,15,180,43,300,43s240-28,360-72.1
		c21.5-7.7,43.1-15.9,64.6-24.1c98.5-37.4,196.9-74.8,295.4-69c120,7,240,79.1,300,115.1l60,36V368V768"/>
</g>
</svg>
