<svg width="100" height="100" viewBox="0 0 100 100" fill="none" xmlns="http://www.w3.org/2000/svg">
<circle cx="50" cy="50" r="49.5" stroke="#9E9E9E"/>
<g clip-path="url(#clip0)">
<path d="M65.6334 49.1153C65.633 49.1149 65.6327 49.1145 65.6322 49.1141L59.1007 42.6141C58.6114 42.1272 57.82 42.129 57.3329 42.6184C56.8459 43.1077 56.8478 43.8991 57.3371 44.3861L61.7224 48.7501H35.25C34.5596 48.7501 34 49.3097 34 50.0001C34 50.6905 34.5596 51.2501 35.25 51.2501H61.7223L57.3372 55.6141C56.8479 56.1011 56.846 56.8925 57.333 57.3819C57.8201 57.8713 58.6116 57.873 59.1008 57.3861L65.6323 50.8861C65.6327 50.8857 65.633 50.8853 65.6334 50.8849C66.123 50.3963 66.1214 49.6023 65.6334 49.1153Z" fill="black"/>
</g>
<defs>
<clipPath id="clip0">
<rect width="32" height="32" fill="white" transform="translate(34 34)"/>
</clipPath>
</defs>
</svg>
