<svg width="100" height="100" viewBox="0 0 100 100" fill="none" xmlns="http://www.w3.org/2000/svg">
<circle cx="50" cy="50" r="49.5" stroke="#9E9E9E"/>
<g clip-path="url(#clip0)">
<path d="M34.3666 50.8847C34.367 50.8851 34.3673 50.8855 34.3678 50.8859L40.8993 57.3859C41.3886 57.8728 42.18 57.871 42.6671 57.3816C43.1541 56.8923 43.1522 56.1009 42.6629 55.6139L38.2776 51.2499L64.75 51.2499C65.4404 51.2499 66 50.6903 66 49.9999C66 49.3095 65.4404 48.7499 64.75 48.7499L38.2777 48.7499L42.6628 44.3859C43.1521 43.8989 43.154 43.1075 42.667 42.6181C42.1799 42.1287 41.3884 42.127 40.8992 42.6139L34.3677 49.1139C34.3673 49.1143 34.367 49.1147 34.3666 49.1151C33.877 49.6037 33.8786 50.3977 34.3666 50.8847Z" fill="black"/>
</g>
<defs>
<clipPath id="clip0">
<rect width="32" height="32" fill="white" transform="translate(66 66) rotate(-180)"/>
</clipPath>
</defs>
</svg>
