<svg width="30" height="30" viewBox="0 0 30 30" fill="none" xmlns="http://www.w3.org/2000/svg">
<g clip-path="url(#clip0)">
<circle cx="15" cy="15" r="15" fill="white"/>
<path d="M15 2.62268e-06C6.70317 1.17202e-06 -1.17067e-06 6.69545 -2.62268e-06 15C-4.0747e-06 23.3045 6.69545 30 15 30C23.3045 30 30 23.3046 30 15C30 6.69546 23.2969 4.07336e-06 15 2.62268e-06ZM15 27.9943C7.80119 27.9943 2.0056 22.1987 2.0056 14.9999C2.0056 7.80111 7.80128 2.00552 15 2.00552C22.1987 2.00552 27.9944 7.80111 27.9944 14.9999C27.9944 22.1987 22.1988 27.9943 15 27.9943Z" fill="#8B8B8B"/>
<path d="M20.498 14.3976L13.9017 7.80129C13.5052 7.40478 12.9027 7.40478 12.4986 7.80129C12.102 8.1978 12.102 8.80028 12.4986 9.2045L18.2941 15.0001L12.4986 20.7957C12.102 21.1922 12.102 21.7947 12.4986 22.1988C12.6968 22.3971 12.8951 22.4962 13.2002 22.4962C13.3984 22.4962 13.7035 22.3971 14.0008 22.2979L20.498 15.8007C20.6963 15.6025 20.7955 15.4042 20.7955 15.0991C20.7955 14.8017 20.6963 14.5959 20.498 14.3976Z" fill="#8B8B8B"/>
</g>
<defs>
<clipPath id="clip0">
<rect width="30" height="30" fill="white"/>
</clipPath>
</defs>
</svg>
