<svg width="30" height="30" viewBox="0 0 30 30" fill="none" xmlns="http://www.w3.org/2000/svg">
<g clip-path="url(#clip0)">
<circle cx="15" cy="15" r="15" transform="rotate(-180 15 15)" fill="white"/>
<path d="M15 30C23.2968 30 30 23.3045 30 15C30 6.69545 23.3045 -2.93795e-07 15 -1.0198e-06C6.69546 -1.74581e-06 2.32889e-06 6.69545 1.60288e-06 15C8.76875e-07 23.3045 6.70308 30 15 30ZM15 2.00569C22.1988 2.00569 27.9944 7.80128 27.9944 15.0001C27.9944 22.1989 22.1987 27.9945 15 27.9945C7.80128 27.9945 2.0056 22.1989 2.0056 15.0001C2.00561 7.80128 7.8012 2.00569 15 2.00569Z" fill="#8B8B8B"/>
<path d="M9.502 15.6024L16.0983 22.1987C16.4948 22.5952 17.0973 22.5952 17.5014 22.1987C17.898 21.8022 17.898 21.1997 17.5014 20.7955L11.7059 14.9999L17.5014 9.20432C17.898 8.80781 17.898 8.20533 17.5014 7.8012C17.3032 7.60294 17.1049 7.50381 16.7998 7.50381C16.6016 7.50381 16.2965 7.60294 15.9992 7.70207L9.502 14.1993C9.30374 14.3975 9.20453 14.5958 9.20453 14.9009C9.20453 15.1983 9.30365 15.4041 9.502 15.6024Z" fill="#8B8B8B"/>
</g>
<defs>
<clipPath id="clip0">
<rect width="30" height="30" fill="white" transform="translate(30 30) rotate(-180)"/>
</clipPath>
</defs>
</svg>
