<?xml version="1.0" encoding="utf-8"?>
<!-- Generator: Adobe Illustrator 25.0.1, SVG Export Plug-In . SVG Version: 6.00 Build 0)  -->
<svg version="1.1" id="Слой_1" xmlns="http://www.w3.org/2000/svg" xmlns:xlink="http://www.w3.org/1999/xlink" x="0px" y="0px"
	 viewBox="0 0 1440 1237" style="enable-background:new 0 0 1440 1237;" xml:space="preserve">
<style type="text/css">
	.st0{fill-rule:evenodd;clip-rule:evenodd;fill:#E9E7E0;fill-opacity:0.8;}
</style>
<g>
	<path class="st0" d="M0,0h60c60,0,180,0,300,36c40,12,80,28,120,44c80,32,160,64,240,64s160-32,240-64c40-16,80-32,120-44
		c120-36,240-36,300-36h60v214v2v805v216h-60c-60,0-180,0-300-36c-40-12-80-28-120-44c-80-32-160-64-240-64s-160,32-240,64
		c-40,16-80,32-120,44c-120,36-240,36-300,36H0v-216V216v-2V0z"/>
</g>
</svg>
