<?xml version="1.0" encoding="utf-8"?>
<!-- Generator: Adobe Illustrator 25.0.1, SVG Export Plug-In . SVG Version: 6.00 Build 0)  -->
<svg version="1.1" id="Слой_1" xmlns="http://www.w3.org/2000/svg" xmlns:xlink="http://www.w3.org/1999/xlink" x="0px" y="0px"
	 viewBox="0 0 1289 798" style="enable-background:new 0 0 1289 798;" xml:space="preserve">
<style type="text/css">
	.st0{fill:#A79E8B;}
	.st1{fill:#DDBC89;}
	.st2{display:none;}
	.st3{display:inline;fill-rule:evenodd;clip-rule:evenodd;fill:#E9E7E0;fill-opacity:0.8;}
</style>
<circle class="st0" cx="378.7" cy="381.7" r="378.6"/>
<path class="st1" d="M1289,292v426.6c-71.4,66.9-174.7,96.6-276.2,69.4c-156.1-41.8-248.8-202.3-206.9-358.4
	c41.8-156.1,202.3-248.8,358.4-206.9C1212.7,235.6,1254.9,259.9,1289,292z"/>
<g class="st2">
	<path class="st3" d="M-151-284h60c60,0,180,0,300,36c40,12,80,28,120,44c80,32,160,64,240,64s160-32,240-64c40-16,80-32,120-44
		c120-36,240-36,300-36h60v214v2v805v216h-60c-60,0-180,0-300-36c-40-12-80-28-120-44c-80-32-160-64-240-64s-160,32-240,64
		c-40,16-80,32-120,44C89,953-31,953-91,953h-60V737V-68v-2V-284z"/>
</g>
</svg>
