<?xml version="1.0" encoding="utf-8"?>
<!-- Generator: Adobe Illustrator 25.0.1, SVG Export Plug-In . SVG Version: 6.00 Build 0)  -->
<svg version="1.1" id="Слой_1" xmlns="http://www.w3.org/2000/svg" xmlns:xlink="http://www.w3.org/1999/xlink" x="0px" y="0px"
	 viewBox="0 0 413 683" style="enable-background:new 0 0 413 683;" xml:space="preserve">
<style type="text/css">
	.st0{fill:#FFE4E4;}
</style>
<path class="st0" d="M394.6,287.2c-16.1-10.8-38.2-27.8-44-51.2c-7.3-29.4-3.9-62.9-0.7-95.2c5.1-51,9.9-99.2-24-131.6
	c-23.9-22.9-53.1,2-84,28.4c-19.1,16.3-38.8,33.1-58.1,39.2c-18.5,5.9-41.7,3.9-64.2,2c-36-3.1-70-6-82.4,22.3
	c-15.5,35.2,3.5,70.2,23.7,107.2c13.7,25.2,27.9,51.2,30.6,77.8c2.1,20.9-7.9,40.6-17.5,59.6c-3.4,6.7-6.9,13.6-9.9,20.5
	c-6.8,15.9-17.5,31-27.9,45.6C18,437.3-0.9,463.8,2.7,494.5c4.4,38.1,41.7,63,74.6,85.1c4.5,3,8.8,5.9,13,8.8
	c26.5,18.3,57.4,28.2,87.2,37.7c9.7,3.1,19.8,6.3,29.6,9.8c14.1,5,28.4,12.4,42.2,19.6c24.7,12.8,50,26,75.5,26
	c6.8,0,13.6-0.9,20.4-3c29-9,52-30.8,68-56v-1.9c-2.3,3.7-4.7,7.3-7.3,10.8c-15.4,20.9-35.9,38.4-61,46.2c-32,10-64.1-6.7-95.1-22.8
	c-13.9-7.2-28.2-14.6-42.3-19.6c-9.8-3.5-19.9-6.7-29.6-9.8c-29.8-9.5-60.6-19.4-87-37.6c-4.2-2.9-8.5-5.8-13-8.8
	C45.1,556.8,8,532,3.7,494.3c-3.5-30.3,14.4-55.5,33.4-82.1c10.4-14.6,21.2-29.8,28-45.8c2.9-6.9,6.4-13.8,9.8-20.5
	c9.7-19.1,19.8-38.9,17.6-60.1c-2.7-26.7-17-52.9-30.8-78.1c-20.1-36.8-39-71.5-23.7-106.3c8.4-19,26.9-23.6,49.3-23.6
	c10.1,0,21,0.9,32.1,1.9c22.6,1.9,45.9,3.9,64.6-2c19.5-6.2,39.3-23.1,58.4-39.4c30.6-26,59.4-50.6,82.7-28.4
	c33.5,32,28.7,80,23.7,130.8c-3.2,32.5-6.6,66,0.7,95.6c5.9,23.8,28.2,41,44.4,51.8c5.5,3.7,12,6.6,19,9.1v-1.1
	C406.2,293.7,400,290.8,394.6,287.2z M395.3,418.2c-9.5,24.5,4,49.5,17.7,73.8v-2c-13.8-24.5-26-47.8-16.8-71.4
	c3.1-7.9,9.1-13.7,16.8-18.1v-1.2C404.8,403.9,398.5,409.8,395.3,418.2z"/>
</svg>
