<?xml version="1.0" encoding="utf-8"?>
<!-- Generator: Adobe Illustrator 25.0.1, SVG Export Plug-In . SVG Version: 6.00 Build 0)  -->
<svg version="1.1" id="Слой_1" xmlns="http://www.w3.org/2000/svg" xmlns:xlink="http://www.w3.org/1999/xlink" x="0px" y="0px"
	 viewBox="0 0 520 534" style="enable-background:new 0 0 520 534;" xml:space="preserve">
<style type="text/css">
	.st0{fill:#FFE4E4;}
</style>
<g>
	<path class="st0" d="M489.5,316.1c20.7-29.6,40.2-57.6,21.9-82.5c-22.8-31.1-62.5-32-104.7-33.1c-28.7-0.7-58.3-1.4-82.7-12.4
		c-19.2-8.6-31.2-27.1-42.8-44.9c-4.1-6.3-8.3-12.8-12.8-18.8c-10.4-13.8-18.1-30.7-25.5-47C229.8,48.8,216.3,19.2,188,7
		c-35.2-15.2-75.4,4.6-111,22c-4.9,2.4-9.5,4.7-14.1,6.8C39.3,47,19.1,63.4,0,80.4v1.3c19.3-17.2,39.6-33.8,63.3-45.1
		c4.6-2.2,9.2-4.5,14.1-6.8c35.3-17.3,75.4-37,110.1-22c28,12.1,40.8,40.2,54.4,70c7.5,16.3,15.2,33.2,25.6,47.1
		c4.5,6,8.7,12.5,12.8,18.8c11.7,18,23.8,36.6,43.3,45.3c24.5,11,54.3,11.7,83,12.4c41.9,1,81.4,2,103.9,32.6
		c17.9,24.4-1.5,52.1-21.9,81.4c-13,18.6-26.4,37.8-30.6,56.9c-4.4,20,0.4,45.6,4.9,70.3c7.3,39.5,14.2,76.8-16.7,85.8
		c-44.5,13-83.6-15.1-125.1-44.9c-26.5-19-53.9-38.7-83.1-47.1c-5.2-1.5-10.6-2.2-15.9-2.2c-18.8,0-37.5,8-51.2,14.7
		c-16.3,8-31.1,24.8-45.5,41C107,511,89.3,531,70.2,531c-4.8,0-9.7-1.3-14.7-4.1c-21.3-12-12-39.4-2.1-68.3
		c9.3-27.2,18.8-55.2,4.3-73.4c-13.5-16.8-35-20.3-57.7-21.2v1c23,0.9,43.6,4.3,56.9,20.9c14.2,17.8,4.8,45.6-4.4,72.5
		c-10,29.4-19.5,57.1,2.5,69.5c25.7,14.5,47.8-10.5,71.2-36.9c14.3-16.1,29.1-32.8,45.2-40.8c17.4-8.6,43.2-19.2,66.4-12.5
		c29.1,8.4,56.4,28,82.8,47c34.5,24.8,67.4,48.4,103.1,48.4c7.5,0,15.1-1,22.8-3.3c31.8-9.3,24.8-47,17.4-86.9
		c-4.5-24.7-9.2-50.1-4.9-69.9C463.3,353.8,476.6,334.6,489.5,316.1z"/>
</g>
</svg>
