<?xml version="1.0" encoding="utf-8"?>
<!-- Generator: Adobe Illustrator 25.0.1, SVG Export Plug-In . SVG Version: 6.00 Build 0)  -->
<svg version="1.1" id="Слой_1" xmlns="http://www.w3.org/2000/svg" xmlns:xlink="http://www.w3.org/1999/xlink" x="0px" y="0px"
	 viewBox="0 0 550 617" style="enable-background:new 0 0 550 617;" xml:space="preserve">
<style type="text/css">
	.st0{fill-rule:evenodd;clip-rule:evenodd;fill:#F7F7F5;}
	.st1{fill:#BDBDBD;}
</style>
<g>
	<g>
		<path class="st0" d="M247.7,4.3C311.4-2.2,381,3.4,430.9,43.5c49.1,39.4,56,108.4,75.3,168.3c19.3,59.8,57,120.6,37.1,180.3
			c-19.9,59.5-87.7,83.5-137.9,121.2c-51.2,38.5-94.2,93.9-157.8,101.1c-66.6,7.5-141.8-11.8-185.9-62.3
			c-42.3-48.4-19.5-122.4-30.5-185.8c-9-51.4-38.5-98.9-28.1-150c11.1-54.6,44.5-101.6,86.6-138.1C134.8,39.3,188.4,10.3,247.7,4.3z
			"/>
	</g>
	<g>
		<path class="st1" d="M219.5,616.5c-25.1,0-50-3.7-73.3-11c-34.6-10.8-63.9-29.2-84.7-53.1c-27.9-32-27.6-74.1-27.2-118.7
			c0.2-22.4,0.4-45.6-3.4-67.3c-3.1-17.8-8.7-35.3-14.2-52.3C5.9,281.1-4.1,249.8,2.7,216.3C12.9,166.2,42.9,118.4,89.5,78
			C139.8,34.3,193,9.4,247.7,3.8c79.2-8.1,141,5.1,183.5,39.3c38,30.5,51,79.3,63.5,126.5c3.7,13.9,7.5,28.4,12,42.1
			c4.6,14.3,10.4,29,16,43.2c17.8,45.2,36.3,91.9,21.1,137.4c-14.5,43.4-55,68.4-94.2,92.6c-14.8,9.1-30.1,18.6-43.9,28.9
			c-13.6,10.2-26.9,21.9-39.7,33.1c-35.2,30.9-71.5,62.8-118.3,68C238.4,616,228.9,616.5,219.5,616.5z M247.7,4.3l0.1,0.5
			c-54.5,5.6-107.5,30.4-157.6,73.9C43.7,119,13.8,166.6,3.7,216.5c-6.8,33.3,3.3,64.4,13.9,97.4c5.5,17,11.1,34.6,14.2,52.4
			c3.8,21.7,3.6,45,3.4,67.5c-0.3,44.4-0.7,86.3,27,118.1c35.3,40.5,93.6,63.8,156.5,63.8c9.6,0,19.2-0.5,29-1.6
			c46.5-5.2,82.7-37,117.8-67.8c12.8-11.3,26.1-22.9,39.8-33.2c13.8-10.4,29.1-19.8,43.9-29c39-24.1,79.4-49,93.8-92
			c15.1-45.2-3.3-91.7-21.1-136.7c-5.6-14.2-11.4-28.9-16-43.2c-4.4-13.7-8.3-28.2-12-42.1c-12.5-47-25.4-95.7-63.2-126
			C388.2,9.9,326.7-3.3,247.8,4.8L247.7,4.3z"/>
	</g>
</g>
</svg>
