<svg width="18" height="32" viewBox="0 0 18 32" fill="none" xmlns="http://www.w3.org/2000/svg">
<path d="M16.6293 0.00665814L12.4846 0C7.82819 0 4.81901 3.09104 4.81901 7.87524V11.5063H0.651712C0.291608 11.5063 0 11.7985 0 12.1591V17.42C0 17.7806 0.291941 18.0725 0.651712 18.0725H4.81901V31.3475C4.81901 31.708 5.11062 32 5.47072 32H10.9079C11.268 32 11.5596 31.7077 11.5596 31.3475V18.0725H16.4321C16.7922 18.0725 17.0838 17.7806 17.0838 17.42L17.0858 12.1591C17.0858 11.986 17.017 11.8202 16.895 11.6977C16.7729 11.5752 16.6067 11.5063 16.4338 11.5063H11.5596V8.4282C11.5596 6.94876 11.9117 6.19773 13.8366 6.19773L16.6286 6.19673C16.9884 6.19673 17.28 5.90443 17.28 5.54423V0.659155C17.28 0.299283 16.9887 0.00732395 16.6293 0.00665814Z" fill="#FD0000"/>
</svg>
