<svg width="40" height="40" viewBox="0 0 40 40" fill="none" xmlns="http://www.w3.org/2000/svg">
<path d="M26.485 23.7994L22.5735 19.8581L26.2032 16.2013C26.8899 15.5104 26.8899 14.3897 26.2032 13.6981C25.5171 13.0069 24.4047 13.0072 23.7192 13.6981L20.0889 17.3549L16.2812 13.5184C15.5948 12.8272 14.4824 12.8272 13.7966 13.5184C13.1108 14.21 13.1108 15.3301 13.7966 16.0216L17.6047 19.8581L13.5148 23.9782C12.8284 24.6701 12.8284 25.7902 13.5148 26.4817C14.2009 27.1726 15.313 27.1726 15.9988 26.4817L20.0889 22.3613L24.001 26.3026C24.6871 26.9938 25.7992 26.9938 26.485 26.3026C27.1717 25.6108 27.1714 24.4901 26.485 23.7994Z" fill="#A79E8B"/>
<circle cx="20" cy="20" r="19.5" stroke="#DADADA"/>
</svg>
