<svg width="18" height="18" viewBox="0 0 18 18" fill="none" xmlns="http://www.w3.org/2000/svg">
<path d="M0 5C0 1.45182 2.09827 0.264185 3.50291 0.0411584C3.81378 -0.00819977 4.11115 0.148194 4.3 0.4L6.47962 3.30616C6.77821 3.70428 6.73862 4.26138 6.38673 4.61327L4.50965 6.49035C4.20529 6.79471 4.13186 7.259 4.35433 7.62748C4.80545 8.37469 5.68734 9.68734 7 11C8.31266 12.3127 9.62531 13.1945 10.3725 13.6457C10.741 13.8681 11.2053 13.7947 11.5097 13.4903L13.3867 11.6133C13.7386 11.2614 14.2957 11.2218 14.6938 11.5204L17.6 13.7C17.8518 13.8889 18.0082 14.1862 17.9588 14.4971C17.7358 15.9017 16.5482 18 13 18C9 18 6 15 4.5 13.5C3 12 0 9 0 5Z" fill="#FF5D5D"/>
</svg>
