<svg width="1474" height="265" viewBox="0 0 1474 265" fill="none" xmlns="http://www.w3.org/2000/svg">
<g filter="url(#filter0_d)">
<path fill-rule="evenodd" clip-rule="evenodd" d="M1457 148.5L1337 144.141C1217 139.783 975.5 134.248 736.5 149C475 165.142 257 191.225 137 218L17 244.776L17 14.0003L137 14.0003C257 14.0004 497 14.0004 737 14.0004C977 14.0004 1217 14.0004 1337 14.0004L1457 14.0005L1457 148.5Z" fill="url(#paint0_linear)"/>
<path fill-rule="evenodd" clip-rule="evenodd" d="M1457 148.5L1337 144.141C1217 139.783 975.5 134.248 736.5 149C475 165.142 257 191.225 137 218L17 244.776L17 14.0003L137 14.0003C257 14.0004 497 14.0004 737 14.0004C977 14.0004 1217 14.0004 1337 14.0004L1457 14.0005L1457 148.5Z" stroke="black"/>
</g>
<path fill-rule="evenodd" clip-rule="evenodd" d="M1457 134.5L1337 130.141C1217 125.782 975.5 120.248 736.5 135C475 151.142 257 177.225 137 204L17 230.776L17 8.77342e-05L137 9.8225e-05C257 0.000108716 497 0.000129697 737 0.000150679C977 0.00017166 1217 0.000192642 1337 0.000203132L1457 0.000213623L1457 134.5Z" fill="url(#paint1_linear)"/>
<defs>
<filter id="filter0_d" x="0" y="0.000244141" width="1474" height="264.776" filterUnits="userSpaceOnUse" color-interpolation-filters="sRGB">
<feFlood flood-opacity="0" result="BackgroundImageFix"/>
<feColorMatrix in="SourceAlpha" type="matrix" values="0 0 0 0 0 0 0 0 0 0 0 0 0 0 0 0 0 0 127 0"/>
<feOffset dy="3"/>
<feGaussianBlur stdDeviation="8.5"/>
<feColorMatrix type="matrix" values="0 0 0 0 0 0 0 0 0 0 0 0 0 0 0 0 0 0 0.36 0"/>
<feBlend mode="normal" in2="BackgroundImageFix" result="effect1_dropShadow"/>
<feBlend mode="normal" in="SourceGraphic" in2="effect1_dropShadow" result="shape"/>
</filter>
<linearGradient id="paint0_linear" x1="1457" y1="129.817" x2="21.4863" y2="-27.0533" gradientUnits="userSpaceOnUse">
<stop stop-color="#CDCDCD"/>
<stop offset="0.328125" stop-color="#EEEEEE"/>
<stop offset="0.677083" stop-color="#DDDDDD"/>
<stop offset="1" stop-color="#CDCDCD"/>
</linearGradient>
<linearGradient id="paint1_linear" x1="1457" y1="135" x2="17" y2="0.000403554" gradientUnits="userSpaceOnUse">
<stop stop-color="#F42727"/>
<stop offset="0.328125" stop-color="#FD0000"/>
<stop offset="0.677083" stop-color="#FD0000"/>
<stop offset="1" stop-color="#F42727"/>
</linearGradient>
</defs>
</svg>
