<svg width="32" height="32" viewBox="0 0 32 32" fill="none" xmlns="http://www.w3.org/2000/svg">
<path fill-rule="evenodd" clip-rule="evenodd" d="M16.0015 0C11.6561 0 11.1108 0.019 9.4041 0.0966667C7.70075 0.174667 6.53807 0.444333 5.52072 0.84C4.46838 1.24867 3.5757 1.79533 2.68636 2.685C1.79635 3.57433 1.24968 4.467 0.839675 5.519C0.443005 6.53667 0.173002 7.69967 0.0963343 9.40233C0.0200002 11.109 0 11.6547 0 16C0 20.3453 0.0193335 20.889 0.0966677 22.5957C0.175002 24.299 0.444671 25.4617 0.840009 26.479C1.24901 27.5313 1.79569 28.424 2.68536 29.3133C3.57437 30.2033 4.46705 30.7513 5.51872 31.16C6.53673 31.5557 7.69975 31.8253 9.40276 31.9033C11.1094 31.981 11.6545 32 15.9995 32C20.3452 32 20.8889 31.981 22.5956 31.9033C24.2989 31.8253 25.4629 31.5557 26.4809 31.16C27.533 30.7513 28.4243 30.2033 29.3133 29.3133C30.2033 28.424 30.75 27.5313 31.16 26.4793C31.5533 25.4617 31.8233 24.2987 31.9033 22.596C31.98 20.8893 32 20.3453 32 16C32 11.6547 31.98 11.1093 31.9033 9.40267C31.8233 7.69933 31.5533 6.53667 31.16 5.51933C30.75 4.467 30.2033 3.57433 29.3133 2.685C28.4233 1.795 27.5333 1.24833 26.4799 0.84C25.4599 0.444333 24.2966 0.174667 22.5932 0.0966667C20.8865 0.019 20.3432 0 15.9965 0H16.0015ZM14.5661 2.88329C14.9921 2.88262 15.4674 2.88329 16.0014 2.88329C20.2735 2.88329 20.7798 2.89862 22.4668 2.97529C24.0268 3.04662 24.8735 3.30729 25.4375 3.52629C26.1842 3.81629 26.7165 4.16296 27.2762 4.72296C27.8362 5.28296 28.1829 5.81629 28.4736 6.56296C28.6926 7.12629 28.9536 7.97296 29.0246 9.53296C29.1012 11.2196 29.1179 11.7263 29.1179 15.9963C29.1179 20.2663 29.1012 20.773 29.0246 22.4596C28.9532 24.0196 28.6926 24.8663 28.4736 25.4296C28.1836 26.1763 27.8362 26.708 27.2762 27.2676C26.7162 27.8276 26.1845 28.1743 25.4375 28.4643C24.8742 28.6843 24.0268 28.9443 22.4668 29.0156C20.7801 29.0923 20.2735 29.109 16.0014 29.109C11.7291 29.109 11.2227 29.0923 9.53603 29.0156C7.97601 28.9436 7.12934 28.683 6.565 28.464C5.81833 28.174 5.28499 27.8273 4.72498 27.2673C4.16497 26.7073 3.8183 26.1753 3.52763 25.4283C3.30863 24.865 3.04763 24.0183 2.97663 22.4583C2.89996 20.7716 2.88463 20.265 2.88463 15.9923C2.88463 11.7196 2.89996 11.2156 2.97663 9.52896C3.04796 7.96896 3.30863 7.12229 3.52763 6.55829C3.81764 5.81162 4.16497 5.27829 4.72498 4.71829C5.28499 4.15829 5.81833 3.81162 6.565 3.52096C7.129 3.30096 7.97601 3.04096 9.53603 2.96929C11.012 2.90262 11.5841 2.88262 14.5661 2.87929V2.88329ZM24.5422 5.53996C23.4822 5.53996 22.6222 6.39896 22.6222 7.4593C22.6222 8.5193 23.4822 9.3793 24.5422 9.3793C25.6022 9.3793 26.4622 8.5193 26.4622 7.4593C26.4622 6.3993 25.6022 5.53996 24.5422 5.53996ZM16.0015 7.78329C11.4638 7.78329 7.78477 11.4623 7.78477 16C7.78477 20.5376 11.4638 24.215 16.0015 24.215C20.5392 24.215 24.2169 20.5376 24.2169 16C24.2169 11.4623 20.5392 7.78329 16.0015 7.78329ZM16.0015 10.6666C18.9468 10.6666 21.3349 13.0543 21.3349 16C21.3349 18.9453 18.9468 21.3333 16.0015 21.3333C13.0558 21.3333 10.6681 18.9453 10.6681 16C10.6681 13.0543 13.0558 10.6666 16.0015 10.6666Z" fill="#FF0000"/>
</svg>
