<svg width="19" height="19" viewBox="0 0 19 19" fill="none" xmlns="http://www.w3.org/2000/svg">
<path fill-rule="evenodd" clip-rule="evenodd" d="M9.50089 0C6.92082 0 6.59703 0.0112813 5.58368 0.0573958C4.57232 0.103708 3.88198 0.263823 3.27793 0.49875C2.6531 0.741396 2.12307 1.06598 1.59503 1.59422C1.06658 2.12226 0.741997 2.65228 0.498557 3.27691C0.263034 3.88115 0.10272 4.57168 0.0571985 5.58264C0.0118751 6.59597 0 6.91996 0 9.5C0 12.08 0.0114793 12.4028 0.0573964 13.4162C0.103907 14.4275 0.264024 15.1179 0.498755 15.7219C0.741602 16.3467 1.06619 16.8767 1.59443 17.4048C2.12228 17.9332 2.65231 18.2586 3.27674 18.5012C3.88119 18.7362 4.57172 18.8963 5.58289 18.9426C6.59624 18.9887 6.91983 19 9.4997 19C12.08 19 12.4028 18.9887 13.4161 18.9426C14.4275 18.8963 15.1186 18.7362 15.7231 18.5012C16.3477 18.2586 16.8769 17.9332 17.4048 17.4048C17.9332 16.8767 18.2578 16.3467 18.5012 15.7221C18.7348 15.1179 18.8951 14.4273 18.9426 13.4164C18.9881 12.403 19 12.08 19 9.5C19 6.91996 18.9881 6.59617 18.9426 5.58283C18.8951 4.57148 18.7348 3.88115 18.5012 3.2771C18.2578 2.65228 17.9332 2.12226 17.4048 1.59422C16.8763 1.06578 16.3479 0.741198 15.7225 0.49875C15.1168 0.263823 14.4261 0.103708 13.4147 0.0573958C12.4014 0.0112813 12.0788 0 9.49792 0H9.50089ZM8.64861 1.71195C8.90155 1.71156 9.18378 1.71195 9.50085 1.71195C12.0374 1.71195 12.338 1.72106 13.3397 1.76658C14.2659 1.80893 14.7687 1.9637 15.1035 2.09373C15.5469 2.26592 15.8629 2.47175 16.1953 2.80425C16.5278 3.13675 16.7336 3.45342 16.9062 3.89675C17.0362 4.23123 17.1912 4.73394 17.2333 5.66019C17.2789 6.66165 17.2888 6.96248 17.2888 9.4978C17.2888 12.0331 17.2789 12.3339 17.2333 13.3354C17.191 14.2617 17.0362 14.7644 16.9062 15.0988C16.734 15.5422 16.5278 15.8579 16.1953 16.1902C15.8627 16.5227 15.5471 16.7285 15.1035 16.9007C14.769 17.0313 14.2659 17.1857 13.3397 17.228C12.3382 17.2735 12.0374 17.2834 9.50085 17.2834C6.96413 17.2834 6.66349 17.2735 5.66202 17.228C4.73576 17.1853 4.23305 17.0305 3.89797 16.9005C3.45463 16.7283 3.13796 16.5225 2.80546 16.19C2.47295 15.8575 2.26712 15.5416 2.09453 15.098C1.9645 14.7636 1.80953 14.2609 1.76737 13.3346C1.72185 12.3332 1.71275 12.0323 1.71275 9.49542C1.71275 6.95853 1.72185 6.65928 1.76737 5.65782C1.80973 4.73157 1.9645 4.22886 2.09453 3.89398C2.26672 3.45065 2.47295 3.13398 2.80546 2.80148C3.13796 2.46898 3.45463 2.26315 3.89797 2.09057C4.23285 1.95994 4.73576 1.80557 5.66202 1.76301C6.5384 1.72343 6.87803 1.71156 8.64861 1.70958V1.71195ZM14.5719 3.28935C13.9425 3.28935 13.4319 3.79938 13.4319 4.42896C13.4319 5.05833 13.9425 5.56896 14.5719 5.56896C15.2013 5.56896 15.7119 5.05833 15.7119 4.42896C15.7119 3.79958 15.2013 3.28935 14.5719 3.28935ZM9.50091 4.62133C6.80664 4.62133 4.62221 6.80573 4.62221 9.49997C4.62221 12.1942 6.80664 14.3776 9.50091 14.3776C12.1952 14.3776 14.3788 12.1942 14.3788 9.49997C14.3788 6.80573 12.1952 4.62133 9.50091 4.62133ZM9.50087 6.33331C11.2497 6.33331 12.6676 7.75098 12.6676 9.49997C12.6676 11.2488 11.2497 12.6666 9.50087 12.6666C7.75186 12.6666 6.33417 11.2488 6.33417 9.49997C6.33417 7.75098 7.75186 6.33331 9.50087 6.33331Z" fill="black"/>
</svg>
