<svg width="186" height="51" viewBox="0 0 186 51" fill="none" xmlns="http://www.w3.org/2000/svg">
<path d="M38.9173 26.26C38.6337 25.7036 38.7924 25.2692 39.2538 24.9053C42.4692 22.3533 44.4831 18.9325 46.4129 15.4507C47.7443 13.0466 49.0564 10.6307 50.419 8.24766C54.2089 1.64329 61.8655 -1.45816 69.3178 0.659561C72.3199 1.47266 74.9616 3.23451 76.8302 5.66977C78.2791 7.58665 79.6205 9.57896 80.8483 11.6379C82.9151 15.0704 85.6764 17.7117 89.3533 19.4725C90.7076 20.147 92.0161 20.9062 93.2705 21.7452C98.3628 25.0509 99.9442 29.838 99.1126 35.5174C98.4518 40.0205 95.8563 43.4248 92.2876 46.1905C89.9434 47.9666 87.3259 49.3685 84.5324 50.3438C83.8788 50.5785 83.1866 50.9143 82.4801 50.3696C82.1725 49.5925 82.7348 49.2497 83.2371 48.8506C85.1597 47.3268 87.1591 45.8759 88.9735 44.2348C91.5041 41.9433 93.2152 39.18 93.5156 35.7005C93.8376 31.9886 92.6937 28.9834 89.3172 27.0136C87.3946 25.8937 85.4312 24.8396 83.4798 23.769C80.2912 22.0089 77.642 19.4484 75.8064 16.3523C74.8259 14.7417 73.7925 13.1616 72.7736 11.5745C68.4286 4.81987 59.991 5.73551 55.7782 10.2621C53.7979 12.3915 52.1229 14.791 50.3926 17.1388C47.7154 20.7544 44.6778 23.9709 40.65 26.1896C40.0684 26.5065 39.5157 26.807 38.9173 26.26Z" fill="#004CFE"/>
<path d="M2.55941 42.6196V45.6718H0V40.0981L1.28571 39.8633C2.18691 38.0344 2.54499 36.0293 2.64352 34.0008C2.72763 32.0146 2.66034 30.0213 2.66034 27.9224H13.1455V39.814L14.4312 40.0863V45.6577H11.9271V42.6196H2.55941ZM5.96714 30.4486L4.90733 39.8398H9.95405V30.4486H5.96714Z" fill="#FE0101"/>
<path d="M159.359 27.8918H162.144V36.9472L162.423 37.0458L168.149 27.8894H171.19V42.4458H168.44V33.5711L168.13 33.4607L162.391 42.4951H159.359V27.8918Z" fill="#FE0101"/>
<path d="M129.184 27.8848H131.986V36.9309L132.258 37.0131C134.161 33.975 136.062 30.937 137.982 27.8684H140.984V42.4623H138.218V33.6158L137.903 33.5313L132.21 42.4952H129.184V27.8848Z" fill="#FE0101"/>
<path d="M144.175 42.4716V27.894H147.177V33.4372H153.029V27.9058H156.095V42.495H153.084V36.2546H147.271V42.4716H144.175Z" fill="#FE0101"/>
<path d="M115.491 27.8777H125.928V42.5115H122.984V30.4861H118.463C118.463 31.1458 118.463 31.7234 118.463 32.3009C118.463 34.4539 118.475 36.6092 118.423 38.7597C118.343 42.0467 117.154 43.0163 113.813 42.5867C113.659 42.5679 113.506 42.5209 113.26 42.4669V40.2412C113.599 40.199 113.905 40.1708 114.222 40.1238C114.539 40.0769 114.832 40.0064 115.253 39.9243C115.35 39.3018 115.415 38.6749 115.447 38.046C115.459 35.1089 115.447 32.1765 115.447 29.2394C115.423 28.8262 115.462 28.4083 115.491 27.8777Z" fill="#FE0101"/>
<path d="M74.9079 27.8872H77.8638V33.4562H83.7516V27.8919H86.8205V42.4483H83.7733V36.2548H77.8854V42.4952H74.9079V27.8872Z" fill="#FE0101"/>
<path d="M26.731 42.4576L25.414 39.3045H19.5022C19.0768 40.361 18.6394 41.4363 18.2117 42.4928H14.9553L20.723 27.9036H24.0875C26.0509 32.6837 28.0215 37.492 30.0594 42.4599L26.731 42.4576ZM24.3687 36.5552L22.4918 31.714L22.2514 31.761C21.6819 33.3152 21.1123 34.8695 20.4971 36.5552H24.3687Z" fill="#FE0101"/>
<path d="M62.6825 39.288C62.2644 40.3399 61.8486 41.3893 61.4112 42.4951H58.1573L63.925 27.8848H67.263L73.2326 42.4411H69.9042C69.4836 41.4175 69.0558 40.3751 68.6064 39.2857L62.6825 39.288ZM65.7154 31.7352L65.4558 31.7704C64.8791 33.334 64.3047 34.8976 63.6919 36.5622H67.537L65.7154 31.7352Z" fill="#FE0101"/>
<path d="M101.703 27.8965H104.731V33.8927C105.712 34.0547 106.116 33.5265 106.414 32.902C106.801 32.0873 107.135 31.2444 107.5 30.4227C108.538 28.143 109.744 27.5067 112.448 27.8565V29.878C112.277 29.9377 112.098 29.9763 111.917 29.993C110.559 29.9109 110.057 30.803 109.619 31.8361C109.182 32.8691 108.639 33.9303 108.113 35.0432C110.432 36.8134 111.109 39.7975 112.751 42.4763H109.105C107.819 40.5135 107.38 38.0413 105.558 36.3532C105.419 36.2218 105.123 36.2523 104.743 36.1772V42.4951H101.703V27.8965Z" fill="#FE0101"/>
<path d="M174.422 27.887H177.467V33.8927C178.464 34.0406 178.853 33.4983 179.149 32.8855C179.586 31.9628 179.932 31.0072 180.387 30.0892C181.389 28.0819 182.739 27.4644 185.193 27.894V29.7723C185.102 29.838 185.037 29.9272 184.977 29.9249C183.419 29.8779 182.742 30.8124 182.259 32.0966C181.881 33.0968 181.324 34.0335 180.834 35.029C183.15 36.8932 183.922 39.7692 185.4 42.488H181.867C180.447 40.3914 180.098 37.6609 177.955 36.0879L177.493 36.264V42.4856H174.422V27.887Z" fill="#FE0101"/>
<path d="M34.7118 37.0365V42.4951H31.6694V27.8707C32.1716 27.8495 32.5994 27.812 33.0272 27.8143C35.0651 27.8143 37.1126 27.7744 39.1409 27.8894C41.5441 28.0256 43.1134 29.7466 43.2047 32.1437C43.296 34.5901 41.8205 36.5059 39.4846 36.8698C38.6132 36.9756 37.736 37.0297 36.8579 37.0318C36.2234 37.0553 35.5866 37.0365 34.7118 37.0365ZM34.7695 34.5032C36.0961 34.4281 37.2856 34.4328 38.4536 34.2684C39.3692 34.1416 39.9604 33.3011 39.97 32.4184C39.97 31.5731 39.3476 30.6411 38.4872 30.5401C37.2856 30.3922 36.0552 30.411 34.7695 30.357V34.5032Z" fill="#FE0101"/>
<path d="M57.5302 31.93L54.6464 32.5874C54.0504 31.0308 53.0146 30.1879 51.3636 30.195C49.8111 30.195 48.5519 31.0519 48.1049 32.4982C47.5644 34.234 47.5711 36.0886 48.1241 37.8206C48.2966 38.4732 48.6819 39.0533 49.2216 39.473C49.7614 39.8928 50.4264 40.1295 51.1161 40.1473C52.6469 40.2318 53.6443 39.605 54.3027 38.154C54.4445 37.8394 54.5959 37.5272 54.7834 37.1093L57.499 37.938C57.3668 39.9947 55.5956 42.0303 53.5601 42.5515C48.7345 43.7841 44.7428 40.908 44.5265 36.0199C44.4472 34.2379 44.6082 32.4982 45.4878 30.8946C47.3214 27.5678 52.397 26.4596 55.5187 28.6994C56.581 29.4413 57.213 30.4368 57.5302 31.93Z" fill="#FE0101"/>
</svg>
