<svg width="359" height="99" viewBox="0 0 359 99" fill="none" xmlns="http://www.w3.org/2000/svg">
<path d="M75.2806 50.7966C74.732 49.7202 75.0388 48.8801 75.9314 48.1761C82.1513 43.2395 86.0469 36.6225 89.7798 29.8874C92.3552 25.2369 94.8933 20.5637 97.5291 15.954C104.86 3.17874 119.671 -2.82062 134.086 1.27584C139.893 2.84867 145.004 6.25675 148.618 10.9674C151.421 14.6754 154.016 18.5293 156.391 22.512C160.389 29.1517 165.73 34.2609 172.842 37.667C175.462 38.9719 177.993 40.4403 180.42 42.0632C190.27 48.4577 193.329 57.7179 191.721 68.7038C190.442 77.4144 185.422 83.9997 178.518 89.3496C173.984 92.7853 168.921 95.4969 163.517 97.3835C162.253 97.8377 160.914 98.4871 159.547 97.4335C158.952 95.9302 160.04 95.2672 161.011 94.4951C164.73 91.5477 168.598 88.741 172.108 85.5665C177.003 81.134 180.313 75.7886 180.894 69.058C181.517 61.8779 179.304 56.0648 172.773 52.2544C169.054 50.0881 165.256 48.049 161.481 45.978C155.313 42.5734 150.189 37.6203 146.638 31.6314C144.741 28.5159 142.742 25.4594 140.771 22.3894C132.366 9.32341 116.045 11.0946 107.896 19.8507C104.065 23.9698 100.825 28.6113 97.478 33.1528C92.2994 40.1467 86.4234 46.3686 78.6323 50.6603C77.5073 51.2734 76.4381 51.8548 75.2806 50.7966Z" fill="#004CFE"/>
<path d="M4.95084 82.4421V88.3461H0V77.5645L2.48704 77.1104C4.2303 73.5725 4.92295 69.6941 5.11355 65.7702C5.27625 61.9281 5.14609 58.0723 5.14609 54.0122H25.4283V77.015L27.9153 77.5418V88.3189H23.0714V82.4421H4.95084ZM11.5427 58.8989L9.4926 77.065H19.2548V58.8989H11.5427Z" fill="#1D1D1B"/>
<path d="M308.259 53.953H313.646V71.4697L314.186 71.6604L325.264 53.9485H331.144V82.1059H325.826V64.939L325.226 64.7255L314.125 82.2013H308.259V53.953Z" fill="#1D1D1B"/>
<path d="M249.89 53.9395H255.31V71.438L255.835 71.5969C259.517 65.7202 263.194 59.8435 266.909 53.9077H272.715V82.1378H267.364V65.0254L266.755 64.8619L255.742 82.2014H249.89V53.9395Z" fill="#1D1D1B"/>
<path d="M278.888 82.1558V53.9575H284.695V64.6801H296.014V53.9802H301.946V82.2013H296.121V70.1299H284.876V82.1558H278.888Z" fill="#1D1D1B"/>
<path d="M223.402 53.9258H243.591V82.2331H237.896V58.9714H229.152C229.152 60.2476 229.152 61.3648 229.152 62.482C229.152 66.6466 229.175 70.8157 229.073 74.9757C228.92 81.3339 226.619 83.2095 220.157 82.3784C219.859 82.3421 219.562 82.2513 219.088 82.1468V77.8414C219.743 77.7597 220.334 77.7052 220.947 77.6144C221.561 77.5235 222.128 77.3873 222.942 77.2283C223.13 76.0242 223.255 74.8116 223.318 73.5951C223.341 67.9137 223.318 62.2413 223.318 56.5599C223.272 55.7606 223.346 54.9522 223.402 53.9258Z" fill="#1D1D1B"/>
<path d="M144.9 53.9441H150.618V64.7166H162.007V53.9532H167.943V82.1106H162.049V70.1301H150.659V82.2014H144.9V53.9441Z" fill="#1D1D1B"/>
<path d="M51.7077 82.1287L49.1603 76.0295H37.7245C36.9017 78.0732 36.0556 80.1532 35.2282 82.1969H28.9292L40.086 53.9758H46.5942C50.3922 63.2224 54.2041 72.5234 58.1462 82.1333L51.7077 82.1287ZM47.1381 70.7113L43.5075 61.3467L43.0426 61.4376C41.9409 64.444 40.8391 67.4505 39.6491 70.7113H47.1381Z" fill="#1D1D1B"/>
<path d="M121.251 75.9979C120.442 78.0325 119.638 80.0625 118.792 82.2016H112.498L123.655 53.9397H130.112L141.659 82.0971H135.221C134.407 80.117 133.58 78.1006 132.71 75.9933L121.251 75.9979ZM127.118 61.3878L126.616 61.4559C125.5 64.4806 124.389 67.5052 123.204 70.7252H130.642L127.118 61.3878Z" fill="#1D1D1B"/>
<path d="M196.732 53.9621H202.589V65.5612C204.486 65.8746 205.267 64.8527 205.843 63.6447C206.592 62.0688 207.238 60.4384 207.945 58.8488C209.953 54.439 212.286 53.2083 217.516 53.8849V57.7952C217.185 57.9106 216.839 57.9854 216.489 58.0177C213.862 57.8588 212.891 59.5845 212.045 61.5828C211.199 63.5811 210.148 65.6338 209.13 67.7865C213.616 71.2108 214.927 76.9831 218.102 82.165H211.05C208.563 78.3683 207.712 73.5861 204.189 70.3207C203.919 70.0664 203.347 70.1254 202.613 69.9801V82.2013H196.732V53.9621Z" fill="#1D1D1B"/>
<path d="M337.397 53.944H343.287V65.5612C345.216 65.8473 345.969 64.7982 346.541 63.6129C347.387 61.828 348.056 59.9796 348.935 58.2039C350.873 54.3209 353.486 53.1265 358.232 53.9576V57.5908C358.055 57.718 357.93 57.8905 357.814 57.886C354.801 57.7952 353.49 59.6027 352.556 62.0869C351.826 64.0216 350.748 65.8337 349.799 67.7593C354.281 71.3652 355.773 76.9286 358.632 82.1877H351.798C349.051 78.1321 348.377 72.8503 344.23 69.8075L343.338 70.1481V82.1831H337.397V53.944Z" fill="#1D1D1B"/>
<path d="M67.1455 71.6421V82.2011H61.2603V53.912C62.2318 53.8711 63.0593 53.7985 63.8868 53.803C67.8288 53.803 71.7895 53.7258 75.713 53.9483C80.3617 54.2117 83.3973 57.5407 83.5739 62.1776C83.7506 66.9098 80.8963 70.6157 76.3778 71.3196C74.6921 71.5244 72.9953 71.629 71.2967 71.633C70.0695 71.6784 68.8376 71.6421 67.1455 71.6421ZM67.257 66.7418C69.8231 66.5965 72.1242 66.6055 74.3835 66.2876C76.1546 66.0424 77.2982 64.4165 77.3168 62.7089C77.3168 61.074 76.1128 59.271 74.4485 59.0757C72.1242 58.7896 69.7441 58.8259 67.257 58.7215V66.7418Z" fill="#1D1D1B"/>
<path d="M111.285 61.7646L105.706 63.0362C104.553 60.0252 102.55 58.3948 99.3563 58.4084C96.3532 58.4084 93.9173 60.066 93.0527 62.8636C92.0071 66.2214 92.0201 69.8088 93.0899 73.1592C93.4235 74.4216 94.1688 75.5436 95.2129 76.3555C96.2571 77.1675 97.5434 77.6254 98.8775 77.6599C101.839 77.8234 103.768 76.6108 105.042 73.8041C105.316 73.1956 105.609 72.5916 105.971 71.7832L111.224 73.3863C110.969 77.3647 107.543 81.3022 103.605 82.3104C94.2706 84.6947 86.5492 79.1313 86.1308 69.6759C85.9774 66.2289 86.2888 62.8636 87.9903 59.7618C91.5372 53.3264 101.355 51.1828 107.394 55.5154C109.449 56.9506 110.671 58.8762 111.285 61.7646Z" fill="#1D1D1B"/>
</svg>
