<svg width="46" height="26" viewBox="0 0 46 26" fill="none" xmlns="http://www.w3.org/2000/svg">
<path d="M38.1717 14.9091C37.428 13.9991 37.6408 13.5943 38.1717 12.7809C38.1813 12.7716 44.3206 4.55186 44.9531 1.76429L44.957 1.76243C45.2713 0.746571 44.957 0 43.437 0H38.4075C37.1271 0 36.5368 0.640714 36.2205 1.35757C36.2205 1.35757 33.6597 7.29671 30.0371 11.1466C28.8679 12.259 28.3274 12.6156 27.6891 12.6156C27.3748 12.6156 26.886 12.259 26.886 11.2431V1.76243C26.886 0.544143 26.5276 0 25.4676 0H17.5592C16.7561 0 16.2788 0.568286 16.2788 1.09757C16.2788 2.25271 18.0901 2.51829 18.278 5.76829V12.8199C18.278 14.365 17.9885 14.6491 17.3464 14.6491C15.6367 14.6491 11.487 8.68586 9.02781 1.86086C8.53138 0.536714 8.04645 0.00185701 6.75648 0.00185701H1.72506C0.289427 0.00185701 0 0.642571 0 1.35943C0 2.626 1.70973 8.92357 7.95061 17.2436C12.1099 22.9227 17.9675 26 23.296 26C26.4988 26 26.8898 25.3166 26.8898 24.141C26.8898 18.7144 26.6004 18.2019 28.2047 18.2019C28.9484 18.2019 30.2288 18.5584 33.2189 21.2977C36.6364 24.5459 37.198 26 39.1109 26H44.1404C45.5742 26 46.3006 25.3166 45.8828 23.9683C44.9263 21.1324 38.4631 15.2991 38.1717 14.9091Z" fill="#FF0000"/>
</svg>
